<svg xmlns="http://www.w3.org/2000/svg" xmlns:xlink="http://www.w3.org/1999/xlink" width="2500" zoomAndPan="magnify" viewBox="0 0 1874.88 449.999984" height="600" preserveAspectRatio="xMidYMid meet" version="1.0"><defs><g/><clipPath id="5daaf3cf34"><path d="M 56 0.015625 L 1843 0.015625 L 1843 449.984375 L 56 449.984375 Z M 56 0.015625 " clip-rule="nonzero"/></clipPath><clipPath id="6f87764f9f"><rect x="0" width="1787" y="0" height="450"/></clipPath></defs><g clip-path="url(#5daaf3cf34)"><g transform="matrix(1, 0, 0, 1, 56, 0.000000000000021826)"><g clip-path="url(#6f87764f9f)"><g fill="#6ea44c" fill-opacity="1"><g transform="translate(0.899273, 373.06467)"><g><path d="M 58.078125 0 C 43.796875 0 36.65625 -7.617188 36.65625 -22.859375 L 36.65625 -310.40625 C 36.65625 -325.644531 43.796875 -333.265625 58.078125 -333.265625 C 72.679688 -333.265625 79.984375 -325.644531 79.984375 -310.40625 L 79.984375 -188.0625 L 206.15625 -317.078125 C 211.550781 -323.421875 216.546875 -327.703125 221.140625 -329.921875 C 225.742188 -332.148438 231.535156 -333.265625 238.515625 -333.265625 C 248.359375 -333.265625 254.390625 -330.007812 256.609375 -323.5 C 258.835938 -317 257.253906 -310.890625 251.859375 -305.171875 L 124.734375 -177.578125 L 261.375 -26.65625 C 266.132812 -20.625 267.640625 -14.351562 265.890625 -7.84375 C 264.148438 -1.34375 257.722656 1.90625 246.609375 1.90625 C 238.992188 1.90625 232.726562 0.476562 227.8125 -2.375 C 222.894531 -5.238281 218.6875 -9.050781 215.1875 -13.8125 L 79.984375 -169.015625 L 79.984375 -22.859375 C 79.984375 -7.617188 72.679688 0 58.078125 0 Z M 58.078125 0 "/></g></g></g><g fill="#6ea44c" fill-opacity="1"><g transform="translate(314.163933, 373.06467)"><g><path d="M 59.03125 0 C 44.113281 0 36.65625 -7.617188 36.65625 -22.859375 L 36.65625 -310.40625 C 36.65625 -325.644531 44.113281 -333.265625 59.03125 -333.265625 L 229.484375 -333.265625 C 244.710938 -333.265625 252.328125 -326.441406 252.328125 -312.796875 C 252.328125 -299.148438 244.710938 -292.328125 229.484375 -292.328125 L 79.984375 -292.328125 L 79.984375 -190.90625 L 214.71875 -190.90625 C 229.632812 -190.90625 237.09375 -183.925781 237.09375 -169.96875 C 237.09375 -156.320312 229.632812 -149.5 214.71875 -149.5 L 79.984375 -149.5 L 79.984375 -40.9375 L 235.1875 -40.9375 C 250.425781 -40.9375 258.046875 -34.113281 258.046875 -20.46875 C 258.046875 -6.820312 250.425781 0 235.1875 0 Z M 59.03125 0 "/></g></g></g><g fill="#6ea44c" fill-opacity="1"><g transform="translate(615.526361, 373.06467)"><g><path d="M 58.078125 0 C 43.796875 0 36.65625 -7.617188 36.65625 -22.859375 L 36.65625 -310.40625 C 36.65625 -325.644531 43.796875 -333.265625 58.078125 -333.265625 C 72.679688 -333.265625 79.984375 -325.644531 79.984375 -310.40625 L 79.984375 -22.859375 C 79.984375 -7.617188 72.679688 0 58.078125 0 Z M 58.078125 0 "/></g></g></g><g fill="#6ea44c" fill-opacity="1"><g transform="translate(755.971701, 373.06467)"><g><path d="M 173.78125 7.140625 C 143.625 7.140625 116.957031 0 93.78125 -14.28125 C 70.613281 -28.5625 52.441406 -48.710938 39.265625 -74.734375 C 26.097656 -100.765625 19.515625 -131.398438 19.515625 -166.640625 C 19.515625 -201.867188 26.097656 -232.570312 39.265625 -258.75 C 52.441406 -284.9375 70.613281 -305.25 93.78125 -319.6875 C 116.957031 -334.132812 143.625 -341.359375 173.78125 -341.359375 C 196.945312 -341.359375 218.050781 -337.070312 237.09375 -328.5 C 256.132812 -319.9375 272.476562 -307.71875 286.125 -291.84375 C 291.207031 -286.445312 292.875 -280.972656 291.125 -275.421875 C 289.382812 -269.867188 285.972656 -265.347656 280.890625 -261.859375 L 278.984375 -260.90625 C 275.492188 -258.675781 270.8125 -257.800781 264.9375 -258.28125 C 259.070312 -258.757812 253.597656 -261.378906 248.515625 -266.140625 C 229.796875 -287.398438 204.882812 -298.03125 173.78125 -298.03125 C 152.195312 -298.03125 133.226562 -292.632812 116.875 -281.84375 C 100.53125 -271.050781 87.753906 -255.894531 78.546875 -236.375 C 69.347656 -216.851562 64.75 -193.609375 64.75 -166.640625 C 64.75 -139.972656 69.347656 -116.878906 78.546875 -97.359375 C 87.753906 -77.835938 100.53125 -62.679688 116.875 -51.890625 C 133.226562 -41.097656 152.195312 -35.703125 173.78125 -35.703125 C 204.25 -35.703125 229.160156 -46.335938 248.515625 -67.609375 C 253.597656 -72.367188 258.753906 -75.066406 263.984375 -75.703125 C 269.222656 -76.335938 274.222656 -75.382812 278.984375 -72.84375 L 279.9375 -72.359375 C 285.332031 -69.503906 288.984375 -65.21875 290.890625 -59.5 C 292.796875 -53.789062 291.367188 -48.238281 286.609375 -42.84375 C 272.960938 -26.976562 256.535156 -14.679688 237.328125 -5.953125 C 218.128906 2.773438 196.945312 7.140625 173.78125 7.140625 Z M 173.78125 7.140625 "/></g></g></g><g fill="#6ea44c" fill-opacity="1"><g transform="translate(1099.229664, 373.06467)"><g><path d="M 57.125 0 C 43.476562 0 36.65625 -6.984375 36.65625 -20.953125 L 36.65625 -312.3125 C 36.65625 -326.28125 43.476562 -333.265625 57.125 -333.265625 L 59.515625 -333.265625 C 73.160156 -333.265625 79.984375 -326.28125 79.984375 -312.3125 L 79.984375 -195.203125 L 247.09375 -195.203125 L 247.09375 -312.3125 C 247.09375 -326.28125 253.914062 -333.265625 267.5625 -333.265625 L 270.421875 -333.265625 C 284.066406 -333.265625 290.890625 -326.28125 290.890625 -312.3125 L 290.890625 -20.953125 C 290.890625 -6.984375 284.066406 0 270.421875 0 L 267.5625 0 C 253.914062 0 247.09375 -6.984375 247.09375 -20.953125 L 247.09375 -154.734375 L 79.984375 -154.734375 L 79.984375 -20.953125 C 79.984375 -6.984375 73.160156 0 59.515625 0 Z M 57.125 0 "/></g></g></g><g fill="#6ea44c" fill-opacity="1"><g transform="translate(1450.105101, 373.06467)"><g><path d="M 30.953125 0 C 23.960938 0 19.117188 -2.140625 16.421875 -6.421875 C 13.722656 -10.710938 13.644531 -16.507812 16.1875 -23.8125 L 130.453125 -317.078125 C 134.578125 -327.867188 142.507812 -333.265625 154.25 -333.265625 L 157.59375 -333.265625 C 169.332031 -333.265625 177.265625 -327.867188 181.390625 -317.078125 L 295.65625 -23.8125 C 298.195312 -16.507812 298.195312 -10.710938 295.65625 -6.421875 C 293.113281 -2.140625 288.191406 0 280.890625 0 L 273.75 0 C 261.6875 0 253.753906 -5.550781 249.953125 -16.65625 L 224.234375 -85.21875 L 86.65625 -85.21875 L 60.46875 -16.65625 C 56.65625 -5.550781 48.878906 0 37.140625 0 Z M 101.40625 -126.171875 L 209.484375 -126.171875 L 156.15625 -270.890625 Z M 101.40625 -126.171875 "/></g></g></g></g></g></g></svg>
